# Blender 4.5.0
# www.blender.org
mtllib pisoDentroCasa.mtl
o Box001
v -2.381083 -0.050000 2.350535
v 2.118917 -0.050000 2.350535
v -2.381083 -0.050000 -2.649465
v 2.118917 -0.050000 -2.649465
v -2.381083 0.050000 2.350535
v 2.118917 0.050000 2.350535
v -2.381083 0.050000 -2.649465
v 2.118917 0.050000 -2.649465
vn -0.0000 -1.0000 -0.0000
vn -0.0000 1.0000 -0.0000
vn -0.0000 -0.0000 1.0000
vn 1.0000 -0.0000 -0.0000
vn -0.0000 -0.0000 -1.0000
vn -1.0000 -0.0000 -0.0000
vt 2.498751 0.001594
vt 2.498750 3.188406
vt 0.001249 3.188406
vt 0.001249 0.001594
vt 0.001249 0.001594
vt 2.498750 0.001594
vt 2.498751 3.188406
vt 0.001249 3.188406
vt 0.001249 0.001593
vt 2.498750 0.001593
vt 2.498750 3.188407
vt 0.001249 3.188407
vt 0.001249 0.001593
vt 0.001249 3.188407
vt 0.001249 0.001593
vt 0.001249 3.188407
s 1
usemtl icyer
f 1/1/1 3/2/1 4/3/1
f 4/3/1 2/4/1 1/1/1
f 5/5/2 6/6/2 8/7/2
f 8/7/2 7/8/2 5/5/2
f 1/9/3 2/10/3 6/11/3
f 6/11/3 5/12/3 1/9/3
f 2/13/4 4/10/4 8/11/4
f 8/11/4 6/14/4 2/13/4
f 4/9/5 3/10/5 7/11/5
f 7/11/5 8/12/5 4/9/5
f 3/15/6 1/10/6 5/11/6
f 5/11/6 7/16/6 3/15/6
