# Blender 4.5.0
# www.blender.org
mtllib ventanas.mtl
o SlidingWindow003
v -49.972195 1.806303 6.326511
v -18.562099 1.806303 6.326511
v -18.562099 2.553878 6.326511
v -49.972195 2.553878 6.326511
v -49.972195 1.806303 6.401268
v -18.562099 1.806303 6.401268
v -18.562099 2.553878 6.401268
v -49.972195 2.553878 6.401268
v -49.972195 32.056564 6.326509
v -18.562099 32.056564 6.326509
v -18.562099 32.804138 6.326509
v -49.972195 32.804138 6.326509
v -49.972195 32.056564 6.401266
v -18.562099 32.056564 6.401266
v -18.562099 32.804138 6.401266
v -49.972195 32.804138 6.401266
v -49.232094 2.553878 6.326511
v -19.302198 2.553878 6.326511
v -19.302198 2.553878 6.401268
v -49.232094 2.553878 6.401268
v -49.232094 32.056564 6.326509
v -19.302198 32.056564 6.326509
v -19.302198 32.056564 6.401266
v -49.232094 32.056564 6.401266
v -49.972195 1.806303 6.430185
v -18.562099 1.806303 6.430185
v -18.562099 2.553878 6.430185
v -49.972195 2.553878 6.430185
v -49.972195 1.806303 6.504942
v -18.562099 1.806303 6.504942
v -18.562099 2.553878 6.504942
v -49.972195 2.553878 6.504942
v -49.972195 32.056564 6.430182
v -18.562099 32.056564 6.430182
v -18.562099 32.804138 6.430182
v -49.972195 32.804138 6.430182
v -49.972195 32.056564 6.504940
v -18.562099 32.056564 6.504940
v -18.562099 32.804138 6.504940
v -49.972195 32.804138 6.504940
v -49.232094 2.553878 6.430185
v -19.302198 2.553878 6.430185
v -19.302198 2.553878 6.504942
v -49.232094 2.553878 6.504942
v -49.232094 32.056564 6.430182
v -19.302198 32.056564 6.430182
v -19.302198 32.056564 6.504940
v -49.232094 32.056564 6.504940
v -49.232094 2.553878 6.415727
v -19.302198 2.553878 6.415727
v -49.232094 32.056564 6.415724
v -19.302198 32.056564 6.415724
v -34.267147 2.553878 6.415727
v -19.302198 2.553878 6.415727
v -19.302198 2.703393 6.415727
v -34.267147 2.703393 6.415727
v -34.267147 2.553878 6.422956
v -19.302198 2.553878 6.422956
v -19.302198 2.703393 6.422956
v -34.267147 2.703393 6.422956
v -34.267147 31.907047 6.415724
v -19.302198 31.907047 6.415724
v -19.302198 32.056564 6.415724
v -34.267147 32.056564 6.415724
v -34.267147 31.907047 6.422954
v -19.302198 31.907047 6.422954
v -19.302198 32.056564 6.422954
v -34.267147 32.056564 6.422954
v -34.117634 2.703393 6.415727
v -19.451714 2.703393 6.415727
v -19.451714 31.907047 6.415724
v -34.117634 31.907047 6.415724
v -34.117634 2.703393 6.422956
v -19.451714 2.703393 6.422956
v -19.451714 31.907047 6.422954
v -34.117634 31.907047 6.422954
v -39.504879 2.553878 6.401268
v -24.539930 2.553878 6.401268
v -24.539930 2.703393 6.401268
v -39.504879 2.703393 6.401268
v -39.504879 2.553878 6.408497
v -24.539930 2.553878 6.408497
v -24.539930 2.703393 6.408497
v -39.504879 2.703393 6.408497
v -39.504879 31.907047 6.401266
v -24.539930 31.907047 6.401266
v -24.539930 32.056564 6.401266
v -39.504879 32.056564 6.401266
v -39.504879 31.907047 6.408495
v -24.539930 31.907047 6.408495
v -24.539930 32.056564 6.408495
v -39.504879 32.056564 6.408495
v -39.355366 2.703393 6.401268
v -24.689445 2.703393 6.401268
v -24.689445 31.907047 6.401266
v -39.355366 31.907047 6.401266
v -39.355366 2.703393 6.408497
v -24.689445 2.703393 6.408497
v -24.689445 31.907047 6.408495
v -39.355366 31.907047 6.408495
v -34.267147 2.553878 6.422956
v -19.302198 2.553878 6.422956
v -19.302198 2.703393 6.422956
v -34.267147 2.703393 6.422956
v -34.267147 2.553878 6.430185
v -19.302198 2.553878 6.430185
v -19.302198 2.703393 6.430185
v -34.267147 2.703393 6.430185
v -34.267147 31.907047 6.422954
v -19.302198 31.907047 6.422954
v -19.302198 32.056564 6.422954
v -34.267147 32.056564 6.422954
v -34.267147 31.907047 6.430182
v -19.302198 31.907047 6.430182
v -19.302198 32.056564 6.430182
v -34.267147 32.056564 6.430182
v -34.117634 2.703393 6.422956
v -19.451714 2.703393 6.422956
v -19.451714 31.907047 6.422954
v -34.117634 31.907047 6.422954
v -34.117634 2.703393 6.430185
v -19.451714 2.703393 6.430185
v -19.451714 31.907047 6.430182
v -34.117634 31.907047 6.430182
v -39.504879 2.553878 6.408497
v -24.539930 2.553878 6.408497
v -24.539930 2.703393 6.408497
v -39.504879 2.703393 6.408497
v -39.504879 2.553878 6.415727
v -24.539930 2.553878 6.415727
v -24.539930 2.703393 6.415727
v -39.504879 2.703393 6.415727
v -39.504879 31.907047 6.408495
v -24.539930 31.907047 6.408495
v -24.539930 32.056564 6.408495
v -39.504879 32.056564 6.408495
v -39.504879 31.907047 6.415724
v -24.539930 31.907047 6.415724
v -24.539930 32.056564 6.415724
v -39.504879 32.056564 6.415724
v -39.355366 2.703393 6.408497
v -24.689445 2.703393 6.408497
v -24.689445 31.907047 6.408495
v -39.355366 31.907047 6.408495
v -39.355366 2.703393 6.415727
v -24.689445 2.703393 6.415727
v -24.689445 31.907047 6.415724
v -39.355366 31.907047 6.415724
v -34.267147 2.553878 6.404266
v -19.302198 2.553878 6.404266
v -34.267147 32.056564 6.404264
v -19.302198 32.056564 6.404264
v -34.267147 2.553878 6.441645
v -19.302198 2.553878 6.441645
v -34.267147 32.056564 6.441643
v -19.302198 32.056564 6.441643
v -39.504879 2.553878 6.389808
v -24.539930 2.553878 6.389808
v -39.504879 32.056564 6.389806
v -24.539930 32.056564 6.389806
v -39.504879 2.553878 6.427187
v -24.539930 2.553878 6.427187
v -39.504879 32.056564 6.427185
v -24.539930 32.056564 6.427185
vn -0.0000 -0.0000 -1.0000
vn -1.0000 -0.0000 -0.0000
vn 1.0000 -0.0000 -0.0000
vn -0.0000 1.0000 -0.0000
vn -0.0000 -1.0000 -0.0000
vn -0.0000 -0.0000 1.0000
s 1
usemtl 04_-_Default
f 101//1 104//1 103//1
f 103//1 102//1 101//1
f 104//4 108//4 107//4
f 107//4 103//4 104//4
f 105//6 106//6 107//6
f 107//6 108//6 105//6
f 101//5 102//5 106//5
f 106//5 105//5 101//5
f 109//1 112//1 111//1
f 111//1 110//1 109//1
f 109//5 110//5 114//5
f 114//5 113//5 109//5
f 113//6 114//6 115//6
f 115//6 116//6 113//6
f 112//4 116//4 115//4
f 115//4 111//4 112//4
f 104//1 109//1 120//1
f 120//1 117//1 104//1
f 117//3 120//3 124//3
f 124//3 121//3 117//3
f 108//6 121//6 124//6
f 124//6 113//6 108//6
f 101//2 105//2 116//2
f 116//2 112//2 101//2
f 118//1 119//1 110//1
f 110//1 103//1 118//1
f 118//2 122//2 123//2
f 123//2 119//2 118//2
f 107//6 114//6 123//6
f 123//6 122//6 107//6
f 102//3 111//3 115//3
f 115//3 106//3 102//3
f 125//1 128//1 127//1
f 127//1 126//1 125//1
f 128//4 132//4 131//4
f 131//4 127//4 128//4
f 129//6 130//6 131//6
f 131//6 132//6 129//6
f 125//5 126//5 130//5
f 130//5 129//5 125//5
f 133//1 136//1 135//1
f 135//1 134//1 133//1
f 133//5 134//5 138//5
f 138//5 137//5 133//5
f 137//6 138//6 139//6
f 139//6 140//6 137//6
f 136//4 140//4 139//4
f 139//4 135//4 136//4
f 128//1 133//1 144//1
f 144//1 141//1 128//1
f 141//3 144//3 148//3
f 148//3 145//3 141//3
f 132//6 145//6 148//6
f 148//6 137//6 132//6
f 125//2 129//2 140//2
f 140//2 136//2 125//2
f 142//1 143//1 134//1
f 134//1 127//1 142//1
f 142//2 146//2 147//2
f 147//2 143//2 142//2
f 131//6 138//6 147//6
f 147//6 146//6 131//6
f 126//3 135//3 139//3
f 139//3 130//3 126//3
usemtl Back_Rails
f 53//1 56//1 55//1
f 55//1 54//1 53//1
f 56//4 60//4 59//4
f 59//4 55//4 56//4
f 57//6 58//6 59//6
f 59//6 60//6 57//6
f 53//5 54//5 58//5
f 58//5 57//5 53//5
f 61//1 64//1 63//1
f 63//1 62//1 61//1
f 61//5 62//5 66//5
f 66//5 65//5 61//5
f 65//6 66//6 67//6
f 67//6 68//6 65//6
f 64//4 68//4 67//4
f 67//4 63//4 64//4
f 56//1 61//1 72//1
f 72//1 69//1 56//1
f 69//3 72//3 76//3
f 76//3 73//3 69//3
f 60//6 73//6 76//6
f 76//6 65//6 60//6
f 53//2 57//2 68//2
f 68//2 64//2 53//2
f 70//1 71//1 62//1
f 62//1 55//1 70//1
f 70//2 74//2 75//2
f 75//2 71//2 70//2
f 59//6 66//6 75//6
f 75//6 74//6 59//6
f 54//3 63//3 67//3
f 67//3 58//3 54//3
f 77//1 80//1 79//1
f 79//1 78//1 77//1
f 80//4 84//4 83//4
f 83//4 79//4 80//4
f 81//6 82//6 83//6
f 83//6 84//6 81//6
f 77//5 78//5 82//5
f 82//5 81//5 77//5
f 85//1 88//1 87//1
f 87//1 86//1 85//1
f 85//5 86//5 90//5
f 90//5 89//5 85//5
f 89//6 90//6 91//6
f 91//6 92//6 89//6
f 88//4 92//4 91//4
f 91//4 87//4 88//4
f 80//1 85//1 96//1
f 96//1 93//1 80//1
f 93//3 96//3 100//3
f 100//3 97//3 93//3
f 84//6 97//6 100//6
f 100//6 89//6 84//6
f 77//2 81//2 92//2
f 92//2 88//2 77//2
f 94//1 95//1 86//1
f 86//1 79//1 94//1
f 94//2 98//2 99//2
f 99//2 95//2 94//2
f 83//6 90//6 99//6
f 99//6 98//6 83//6
f 78//3 87//3 91//3
f 91//3 82//3 78//3
usemtl Panels
f 149//1 151//1 152//1
f 152//1 150//1 149//1
f 151//2 149//2 153//2
f 153//2 155//2 151//2
f 152//4 151//4 155//4
f 155//4 156//4 152//4
f 150//3 152//3 156//3
f 156//3 154//3 150//3
f 149//5 150//5 154//5
f 154//5 153//5 149//5
f 153//6 154//6 156//6
f 156//6 155//6 153//6
f 157//1 159//1 160//1
f 160//1 158//1 157//1
f 159//2 157//2 161//2
f 161//2 163//2 159//2
f 160//4 159//4 163//4
f 163//4 164//4 160//4
f 158//3 160//3 164//3
f 164//3 162//3 158//3
f 157//5 158//5 162//5
f 162//5 161//5 157//5
f 161//6 162//6 164//6
f 164//6 163//6 161//6
usemtl Front_Frame
f 25//1 28//1 27//1
f 27//1 26//1 25//1
f 25//2 29//2 32//2
f 32//2 28//2 25//2
f 26//3 27//3 31//3
f 31//3 30//3 26//3
f 28//4 32//4 31//4
f 31//4 27//4 28//4
f 25//5 26//5 30//5
f 30//5 29//5 25//5
f 29//6 30//6 31//6
f 31//6 32//6 29//6
f 33//1 36//1 35//1
f 35//1 34//1 33//1
f 33//2 37//2 40//2
f 40//2 36//2 33//2
f 34//3 35//3 39//3
f 39//3 38//3 34//3
f 36//4 40//4 39//4
f 39//4 35//4 36//4
f 33//5 34//5 38//5
f 38//5 37//5 33//5
f 37//6 38//6 39//6
f 39//6 40//6 37//6
f 28//1 33//1 45//1
f 45//1 41//1 28//1
f 28//2 32//2 37//2
f 37//2 33//2 28//2
f 41//3 45//3 48//3
f 48//3 44//3 41//3
f 32//6 44//6 48//6
f 48//6 37//6 32//6
f 42//1 46//1 34//1
f 34//1 27//1 42//1
f 42//2 43//2 47//2
f 47//2 46//2 42//2
f 27//3 34//3 38//3
f 38//3 31//3 27//3
f 31//6 38//6 47//6
f 47//6 43//6 31//6
f 50//2 42//2 46//2
f 46//2 52//2 50//2
f 51//5 52//5 46//5
f 46//5 45//5 51//5
f 49//3 51//3 45//3
f 45//3 41//3 49//3
f 49//5 50//5 42//5
f 49//4 41//4 42//4
usemtl Back_Frame
f 1//1 4//1 3//1
f 3//1 2//1 1//1
f 1//2 5//2 8//2
f 8//2 4//2 1//2
f 2//3 3//3 7//3
f 7//3 6//3 2//3
f 4//4 8//4 7//4
f 7//4 3//4 4//4
f 1//5 2//5 6//5
f 6//5 5//5 1//5
f 5//6 6//6 7//6
f 7//6 8//6 5//6
f 9//1 12//1 11//1
f 11//1 10//1 9//1
f 9//2 13//2 16//2
f 16//2 12//2 9//2
f 10//3 11//3 15//3
f 15//3 14//3 10//3
f 12//4 16//4 15//4
f 15//4 11//4 12//4
f 9//5 10//5 14//5
f 14//5 13//5 9//5
f 13//6 14//6 15//6
f 15//6 16//6 13//6
f 4//1 9//1 21//1
f 21//1 17//1 4//1
f 4//2 8//2 13//2
f 13//2 9//2 4//2
f 17//3 21//3 24//3
f 24//3 20//3 17//3
f 8//6 20//6 24//6
f 24//6 13//6 8//6
f 18//1 22//1 10//1
f 10//1 3//1 18//1
f 18//2 19//2 23//2
f 23//2 22//2 18//2
f 3//3 10//3 14//3
f 14//3 7//3 3//3
f 7//6 14//6 23//6
f 23//6 19//6 7//6
f 19//2 50//2 52//2
f 52//2 23//2 19//2
f 20//3 24//3 51//3
f 51//3 49//3 20//3
f 24//5 23//5 52//5
f 52//5 51//5 24//5
f 20//5 19//5 50//5
f 20//4 49//4 50//4
o SlidingWindow001
v -1.550576 1.929728 1.014202
v -1.550578 1.929728 -29.761240
v -1.550578 2.677302 -29.761240
v -1.550576 2.677302 1.014202
v -1.475819 1.929728 1.014202
v -1.475820 1.929728 -29.761240
v -1.475820 2.677302 -29.761240
v -1.475819 2.677302 1.014202
v -1.550575 32.179985 1.014202
v -1.550576 32.179985 -29.761240
v -1.550576 32.927563 -29.761240
v -1.550575 32.927563 1.014202
v -1.475817 32.179985 1.014202
v -1.475819 32.179985 -29.761240
v -1.475819 32.927563 -29.761240
v -1.475817 32.927563 1.014202
v -1.550576 2.677302 0.274104
v -1.550578 2.677302 -29.021141
v -1.475820 2.677302 -29.021141
v -1.475819 2.677302 0.274104
v -1.550575 32.179985 0.274104
v -1.550576 32.179985 -29.021141
v -1.475819 32.179985 -29.021141
v -1.475817 32.179985 0.274104
v -0.688570 1.929728 1.014202
v -0.688572 1.929728 -29.761240
v -0.688572 2.677302 -29.761240
v -0.688570 2.677302 1.014202
v -0.613813 1.929728 1.014202
v -0.613814 1.929728 -29.761240
v -0.613814 2.677302 -29.761240
v -0.613813 2.677302 1.014202
v -0.688569 32.179985 1.014202
v -0.688570 32.179985 -29.761240
v -0.688570 32.927563 -29.761240
v -0.688569 32.927563 1.014202
v -0.613812 32.179985 1.014202
v -0.613813 32.179985 -29.761240
v -0.613813 32.927563 -29.761240
v -0.613812 32.927563 1.014202
v -0.688570 2.677302 0.274104
v -0.688572 2.677302 -29.021141
v -0.613814 2.677302 -29.021141
v -0.613813 2.677302 0.274104
v -0.688569 32.179985 0.274104
v -0.688570 32.179985 -29.021141
v -0.613813 32.179985 -29.021141
v -0.613812 32.179985 0.274104
v -1.082195 2.677302 0.274104
v -1.082196 2.677302 -29.021141
v -1.082193 32.179985 0.274104
v -1.082195 32.179985 -29.021141
v -1.082195 2.677302 -14.373519
v -1.082196 2.677302 -29.021141
v -1.082196 2.826817 -29.021141
v -1.082195 2.826817 -14.373519
v -0.885383 2.677302 -14.373519
v -0.885384 2.677302 -29.021141
v -0.885384 2.826817 -29.021141
v -0.885383 2.826817 -14.373519
v -1.082194 32.030472 -14.373519
v -1.082195 32.030472 -29.021141
v -1.082195 32.179985 -29.021141
v -1.082194 32.179985 -14.373519
v -0.885382 32.030472 -14.373519
v -0.885383 32.030472 -29.021141
v -0.885383 32.179985 -29.021141
v -0.885382 32.179985 -14.373519
v -1.082195 2.826817 -14.523034
v -1.082196 2.826817 -28.871628
v -1.082195 32.030472 -28.871628
v -1.082194 32.030472 -14.523034
v -0.885383 2.826817 -14.523034
v -0.885384 2.826817 -28.871628
v -0.885383 32.030472 -28.871628
v -0.885382 32.030472 -14.523034
v -1.475819 2.677302 -11.443995
v -1.475820 2.677302 -26.091618
v -1.475820 2.826817 -26.091618
v -1.475819 2.826817 -11.443995
v -1.279007 2.677302 -11.443995
v -1.279008 2.677302 -26.091618
v -1.279008 2.826817 -26.091618
v -1.279007 2.826817 -11.443995
v -1.475818 32.030472 -11.443995
v -1.475819 32.030472 -26.091618
v -1.475819 32.179985 -26.091618
v -1.475818 32.179985 -11.443995
v -1.279006 32.030472 -11.443995
v -1.279007 32.030472 -26.091618
v -1.279007 32.179985 -26.091618
v -1.279006 32.179985 -11.443995
v -1.475819 2.826817 -11.593510
v -1.475820 2.826817 -25.942101
v -1.475819 32.030472 -25.942101
v -1.475818 32.030472 -11.593510
v -1.279007 2.826817 -11.593510
v -1.279008 2.826817 -25.942101
v -1.279007 32.030472 -25.942101
v -1.279006 32.030472 -11.593510
v -0.885383 2.677302 -14.373519
v -0.885384 2.677302 -29.021141
v -0.885384 2.826817 -29.021141
v -0.885383 2.826817 -14.373519
v -0.688571 2.677302 -14.373519
v -0.688572 2.677302 -29.021141
v -0.688572 2.826817 -29.021141
v -0.688571 2.826817 -14.373519
v -0.885382 32.030472 -14.373519
v -0.885383 32.030472 -29.021141
v -0.885383 32.179985 -29.021141
v -0.885382 32.179985 -14.373519
v -0.688570 32.030472 -14.373519
v -0.688570 32.030472 -29.021141
v -0.688570 32.179985 -29.021141
v -0.688570 32.179985 -14.373519
v -0.885383 2.826817 -14.523034
v -0.885384 2.826817 -28.871628
v -0.885383 32.030472 -28.871628
v -0.885382 32.030472 -14.523034
v -0.688571 2.826817 -14.523034
v -0.688572 2.826817 -28.871628
v -0.688570 32.030472 -28.871628
v -0.688570 32.030472 -14.523034
v -1.279007 2.677302 -11.443995
v -1.279008 2.677302 -26.091618
v -1.279008 2.826817 -26.091618
v -1.279007 2.826817 -11.443995
v -1.082195 2.677302 -11.443995
v -1.082196 2.677302 -26.091618
v -1.082196 2.826817 -26.091618
v -1.082195 2.826817 -11.443995
v -1.279006 32.030472 -11.443995
v -1.279007 32.030472 -26.091618
v -1.279007 32.179985 -26.091618
v -1.279006 32.179985 -11.443995
v -1.082194 32.030472 -11.443995
v -1.082194 32.030472 -26.091618
v -1.082194 32.179985 -26.091618
v -1.082194 32.179985 -11.443995
v -1.279007 2.826817 -11.593510
v -1.279008 2.826817 -25.942101
v -1.279007 32.030472 -25.942101
v -1.279006 32.030472 -11.593510
v -1.082195 2.826817 -11.593510
v -1.082196 2.826817 -25.942101
v -1.082194 32.030472 -25.942101
v -1.082194 32.030472 -11.593510
v -0.904073 2.677302 -14.373519
v -0.904073 2.677302 -29.021141
v -0.904071 32.179985 -14.373519
v -0.904072 32.179985 -29.021141
v -0.866694 2.677302 -14.373519
v -0.866694 2.677302 -29.021141
v -0.866692 32.179985 -14.373519
v -0.866693 32.179985 -29.021141
v -1.297697 2.677302 -11.443995
v -1.297697 2.677302 -26.091618
v -1.297695 32.179985 -11.443995
v -1.297696 32.179985 -26.091618
v -1.260318 2.677302 -11.443995
v -1.260319 2.677302 -26.091618
v -1.260317 32.179985 -11.443995
v -1.260317 32.179985 -26.091618
vn -1.0000 -0.0000 -0.0000
vn -0.0000 -0.0000 1.0000
vn -0.0000 -0.0000 -1.0000
vn -0.0000 1.0000 -0.0000
vn -0.0000 -1.0000 -0.0000
vn 1.0000 -0.0000 -0.0000
s 1
usemtl 04_-_Default
f 265//7 268//7 267//7
f 267//7 266//7 265//7
f 268//10 272//10 271//10
f 271//10 267//10 268//10
f 269//12 270//12 271//12
f 271//12 272//12 269//12
f 265//11 266//11 270//11
f 270//11 269//11 265//11
f 273//7 276//7 275//7
f 275//7 274//7 273//7
f 273//11 274//11 278//11
f 278//11 277//11 273//11
f 277//12 278//12 279//12
f 279//12 280//12 277//12
f 276//10 280//10 279//10
f 279//10 275//10 276//10
f 268//7 273//7 284//7
f 284//7 281//7 268//7
f 281//9 284//9 288//9
f 288//9 285//9 281//9
f 272//12 285//12 288//12
f 288//12 277//12 272//12
f 265//8 269//8 280//8
f 280//8 276//8 265//8
f 282//7 283//7 274//7
f 274//7 267//7 282//7
f 282//8 286//8 287//8
f 287//8 283//8 282//8
f 271//12 278//12 287//12
f 287//12 286//12 271//12
f 266//9 275//9 279//9
f 279//9 270//9 266//9
f 289//7 292//7 291//7
f 291//7 290//7 289//7
f 292//10 296//10 295//10
f 295//10 291//10 292//10
f 293//12 294//12 295//12
f 295//12 296//12 293//12
f 289//11 290//11 294//11
f 294//11 293//11 289//11
f 297//7 300//7 299//7
f 299//7 298//7 297//7
f 297//11 298//11 302//11
f 302//11 301//11 297//11
f 301//12 302//12 303//12
f 303//12 304//12 301//12
f 300//10 304//10 303//10
f 303//10 299//10 300//10
f 292//7 297//7 308//7
f 308//7 305//7 292//7
f 305//9 308//9 312//9
f 312//9 309//9 305//9
f 296//12 309//12 312//12
f 312//12 301//12 296//12
f 289//8 293//8 304//8
f 304//8 300//8 289//8
f 306//7 307//7 298//7
f 298//7 291//7 306//7
f 306//8 310//8 311//8
f 311//8 307//8 306//8
f 295//12 302//12 311//12
f 311//12 310//12 295//12
f 290//9 299//9 303//9
f 303//9 294//9 290//9
usemtl Back_Rails
f 217//7 220//7 219//7
f 219//7 218//7 217//7
f 220//10 224//10 223//10
f 223//10 219//10 220//10
f 221//12 222//12 223//12
f 223//12 224//12 221//12
f 217//11 218//11 222//11
f 222//11 221//11 217//11
f 225//7 228//7 227//7
f 227//7 226//7 225//7
f 225//11 226//11 230//11
f 230//11 229//11 225//11
f 229//12 230//12 231//12
f 231//12 232//12 229//12
f 228//10 232//10 231//10
f 231//10 227//10 228//10
f 220//7 225//7 236//7
f 236//7 233//7 220//7
f 233//9 236//9 240//9
f 240//9 237//9 233//9
f 224//12 237//12 240//12
f 240//12 229//12 224//12
f 217//8 221//8 232//8
f 232//8 228//8 217//8
f 234//7 235//7 226//7
f 226//7 219//7 234//7
f 234//8 238//8 239//8
f 239//8 235//8 234//8
f 223//12 230//12 239//12
f 239//12 238//12 223//12
f 218//9 227//9 231//9
f 231//9 222//9 218//9
f 241//7 244//7 243//7
f 243//7 242//7 241//7
f 244//10 248//10 247//10
f 247//10 243//10 244//10
f 245//12 246//12 247//12
f 247//12 248//12 245//12
f 241//11 242//11 246//11
f 246//11 245//11 241//11
f 249//7 252//7 251//7
f 251//7 250//7 249//7
f 249//11 250//11 254//11
f 254//11 253//11 249//11
f 253//12 254//12 255//12
f 255//12 256//12 253//12
f 252//10 256//10 255//10
f 255//10 251//10 252//10
f 244//7 249//7 260//7
f 260//7 257//7 244//7
f 257//9 260//9 264//9
f 264//9 261//9 257//9
f 248//12 261//12 264//12
f 264//12 253//12 248//12
f 241//8 245//8 256//8
f 256//8 252//8 241//8
f 258//7 259//7 250//7
f 250//7 243//7 258//7
f 258//8 262//8 263//8
f 263//8 259//8 258//8
f 247//12 254//12 263//12
f 263//12 262//12 247//12
f 242//9 251//9 255//9
f 255//9 246//9 242//9
usemtl Panels
f 313//7 315//7 316//7
f 316//7 314//7 313//7
f 315//8 313//8 317//8
f 317//8 319//8 315//8
f 316//10 315//10 319//10
f 319//10 320//10 316//10
f 314//9 316//9 320//9
f 320//9 318//9 314//9
f 313//11 314//11 318//11
f 318//11 317//11 313//11
f 317//12 318//12 320//12
f 320//12 319//12 317//12
f 321//7 323//7 324//7
f 324//7 322//7 321//7
f 323//8 321//8 325//8
f 325//8 327//8 323//8
f 324//10 323//10 327//10
f 327//10 328//10 324//10
f 322//9 324//9 328//9
f 328//9 326//9 322//9
f 321//11 322//11 326//11
f 326//11 325//11 321//11
f 325//12 326//12 328//12
f 328//12 327//12 325//12
usemtl Front_Frame
f 189//7 192//7 191//7
f 191//7 190//7 189//7
f 189//8 193//8 196//8
f 196//8 192//8 189//8
f 190//9 191//9 195//9
f 195//9 194//9 190//9
f 192//10 196//10 195//10
f 195//10 191//10 192//10
f 189//11 190//11 194//11
f 194//11 193//11 189//11
f 193//12 194//12 195//12
f 195//12 196//12 193//12
f 197//7 200//7 199//7
f 199//7 198//7 197//7
f 197//8 201//8 204//8
f 204//8 200//8 197//8
f 198//9 199//9 203//9
f 203//9 202//9 198//9
f 200//10 204//10 203//10
f 203//10 199//10 200//10
f 197//11 198//11 202//11
f 202//11 201//11 197//11
f 201//12 202//12 203//12
f 203//12 204//12 201//12
f 192//7 197//7 209//7
f 209//7 205//7 192//7
f 192//8 196//8 201//8
f 201//8 197//8 192//8
f 205//9 209//9 212//9
f 212//9 208//9 205//9
f 196//12 208//12 212//12
f 212//12 201//12 196//12
f 206//7 210//7 198//7
f 198//7 191//7 206//7
f 206//8 207//8 211//8
f 211//8 210//8 206//8
f 191//9 198//9 202//9
f 202//9 195//9 191//9
f 195//12 202//12 211//12
f 211//12 207//12 195//12
f 214//8 206//8 210//8
f 210//8 216//8 214//8
f 215//11 216//11 210//11
f 210//11 209//11 215//11
f 213//9 215//9 209//9
f 209//9 205//9 213//9
f 213//11 214//11 206//11
f 213//10 205//10 206//10
usemtl Back_Frame
f 165//7 168//7 167//7
f 167//7 166//7 165//7
f 165//8 169//8 172//8
f 172//8 168//8 165//8
f 166//9 167//9 171//9
f 171//9 170//9 166//9
f 168//10 172//10 171//10
f 171//10 167//10 168//10
f 165//11 166//11 170//11
f 170//11 169//11 165//11
f 169//12 170//12 171//12
f 171//12 172//12 169//12
f 173//7 176//7 175//7
f 175//7 174//7 173//7
f 173//8 177//8 180//8
f 180//8 176//8 173//8
f 174//9 175//9 179//9
f 179//9 178//9 174//9
f 176//10 180//10 179//10
f 179//10 175//10 176//10
f 173//11 174//11 178//11
f 178//11 177//11 173//11
f 177//12 178//12 179//12
f 179//12 180//12 177//12
f 168//7 173//7 185//7
f 185//7 181//7 168//7
f 168//8 172//8 177//8
f 177//8 173//8 168//8
f 181//9 185//9 188//9
f 188//9 184//9 181//9
f 172//12 184//12 188//12
f 188//12 177//12 172//12
f 182//7 186//7 174//7
f 174//7 167//7 182//7
f 182//8 183//8 187//8
f 187//8 186//8 182//8
f 167//9 174//9 178//9
f 178//9 171//9 167//9
f 171//12 178//12 187//12
f 187//12 183//12 171//12
f 183//8 214//8 216//8
f 216//8 187//8 183//8
f 184//9 188//9 215//9
f 215//9 213//9 184//9
f 188//11 187//11 216//11
f 216//11 215//11 188//11
f 184//11 183//11 214//11
f 184//10 213//10 214//10
